<svg width="93" height="93" viewBox="0 0 93 93" fill="none" xmlns="http://www.w3.org/2000/svg">
<rect width="93" height="93" rx="24" fill="#102542"/>
<path d="M48.1447 38.2671C56.3758 38.6925 64.0222 38.3273 64.9635 48.5107C65.7686 57.201 62.8927 69.2108 54.1568 72.9919C49.7629 74.8906 49.3984 72.5986 45.9377 72.7511C44.3275 72.8193 44.0592 73.7145 43.0498 73.9312C39.9055 74.6056 34.0896 70.1581 32.135 67.7657C27.9173 62.6038 26.0988 53.476 27.4286 47.0095C29.3312 37.7693 37.4742 38.8972 44.9403 38.2671C44.9684 34.6786 46.6907 31.5196 49.3824 29.2717C50.0032 28.7539 54.9419 25.3099 55.3465 25.1815C56.6602 24.76 58.2104 26.2934 57.5815 27.4373C56.8886 28.7018 51.3851 31.3871 49.9792 33.081C49.4184 33.7553 47.636 37.7693 48.1487 38.2671H48.1447Z" fill="#DB6F61"/>
<path d="M47.7442 29.8377C46.0258 27.6782 43.8269 25.896 40.9429 25.8278L42.8736 27.6983C44.0271 29.918 46.2982 31.1543 44.5398 33.647C38.1792 42.6744 31.5983 23.5117 30.9294 19C35.6438 19.6904 46.0779 20.5414 48.0646 25.7114C48.7696 27.5458 48.2528 28.0636 47.7442 29.8377Z" fill="#DB6F61"/>
</svg>
