<svg width="93" height="93" viewBox="0 0 93 93" fill="none" xmlns="http://www.w3.org/2000/svg">
<rect width="93" height="93" rx="24" fill="#102542"/>
<path d="M70.8342 45.2101C70.6894 45.1877 70.3672 44.9861 70.3048 44.8567C70.1912 44.6364 70.2324 44.1921 70.4022 44.0166C70.6444 43.7665 71.9429 43.1218 72.4261 42.7373C76.3702 39.6011 75.5125 35.8514 71.6795 33.1583C71.451 33.8341 71.7719 35.7146 70.7967 35.7681C69.6543 35.8315 70.2911 33.803 70.2424 32.9717C69.9977 28.7242 65.0584 22.8228 60.5924 25.3404C59.9219 25.7187 59.2352 26.9197 58.5023 26.2563C57.6096 25.4487 59.9544 24.183 60.5462 23.9254C60.9195 23.7624 61.349 23.618 61.756 23.5732C61.3814 20.4433 57.7344 19.6704 55.1375 20.401C53.422 20.8838 51.9524 22.5104 51.207 24.0747C50.8924 24.7356 50.5303 27.1549 49.4453 26.3248C48.8311 25.8544 49.7824 23.9042 50.0784 23.3243C50.6989 22.1097 51.5916 21.012 52.6379 20.1533C50.9686 18.8092 48.9297 18.7234 46.957 19.4663C46.2041 19.7501 45.6935 20.2641 44.9618 20.4719C43.682 20.0313 42.4472 19.373 41.0763 19.2349C38.4394 18.9685 36.3868 19.8745 34.288 21.3381L34.3629 21.5932C35.0496 21.9665 37.0373 22.7991 36.7638 23.7375C36.423 24.9085 34.7325 23.272 34.1993 22.9783C31.8121 21.6703 29.4349 21.7288 27.361 23.5807C26.8392 24.0473 26.0938 25.313 25.7205 25.5544C25.3109 25.8195 23.4444 26.1468 22.7352 26.4368C19.0233 27.9489 18.0494 30.8174 19.062 34.5833C19.2118 35.1396 20.1419 36.5957 18.9908 36.6566C17.8933 36.7151 17.5649 34.1029 17.4301 33.284C14.7994 35.5565 14.6371 39.8027 15.3925 42.9675C16.3726 47.0731 19.4465 49.3232 23.6728 49.2112C22.4792 46.3812 22.9025 43.7789 25.2373 41.7491C25.7155 41.3335 28.1464 39.4929 28.295 40.9415C28.3624 41.5923 27.0626 42.0578 26.5545 42.4398C21.3068 46.3774 26.5932 52.6771 31.5112 53.6578C32.1605 53.7872 34.017 54.0461 34.5976 53.9403C34.7799 53.9067 34.916 53.8544 34.911 53.6366C34.3754 52.9285 33.8847 48.4844 35.5752 49.5771C35.8836 49.7762 35.7288 52.1694 36.0597 52.982C37.3045 56.041 41.2199 56.3297 43.8394 57.2992C48.2717 58.9382 51.1771 64.8135 52.6391 69H57.1339C57.0565 68.2458 56.9666 67.483 56.848 66.7338C56.6644 65.5776 56.0776 63.8627 56.0164 62.8223C55.924 61.2667 58.0416 62.5647 58.9455 62.6518C63.2181 63.0637 66.6665 60.7888 68.03 56.7753C69.929 51.1899 67.6054 46.767 62.6674 44.0079C62.158 43.7229 60.706 43.3583 60.6261 42.7958C60.5824 42.4859 60.7946 42.1026 61.0955 42.0167C61.5625 41.8835 63.3729 42.8916 63.8661 43.1865C66.6478 44.848 69.0575 47.4726 69.7455 50.7058C73.1128 49.8857 75.4975 46.6562 73.9268 43.2413C73.4224 43.6682 71.3723 45.291 70.8342 45.2101ZM24.7503 33.2679C24.216 32.9007 24.362 32.0545 25.0313 31.9761C25.3596 31.9375 27.1513 32.7153 27.858 32.7837C30.2664 33.0165 31.7347 32.0694 32.771 29.9674C32.992 29.5182 33.1306 28.4715 33.6275 28.3272C34.2181 28.1554 34.5876 28.6109 34.484 29.1797C34.2268 30.6021 33.1006 32.154 32.0406 33.0961C33.1281 33.8055 33.9883 34.7376 34.6363 35.8577C35.0021 36.4911 36.0846 38.3081 34.7012 38.3529C34.1032 38.3716 33.9496 37.3909 33.6824 36.9329C33.1206 35.9684 32.6224 35.0935 31.6523 34.4763C30.3501 33.6474 30.4 34.0706 29.1015 34.1527C28.0652 34.2187 25.5981 33.8528 24.7478 33.2691L24.7503 33.2679ZM39.9139 45.4254C39.3796 46.1597 38.548 45.2151 37.9912 44.9587C35.5802 43.8486 33.7698 43.8984 32.0418 46.0414C31.6635 46.5094 30.8782 48.4134 30.1578 47.4166C29.7295 46.8242 30.5099 45.861 30.867 45.3682C31.8383 44.0291 33.1793 43.0496 34.8848 42.9028C36.1695 42.792 37.7827 43.3035 38.9089 43.9208C39.4233 44.2021 40.4508 44.6899 39.9139 45.4254ZM44.5273 26.7467C45.842 27.4896 46.9857 28.7267 47.7111 30.0446C48.0407 30.6432 49.0133 32.6842 48.5239 33.2231C48.3229 33.4446 47.7748 33.4608 47.5538 33.2492C47.3615 33.0663 46.8471 31.3575 46.6124 30.8921C46.0793 29.833 45.0267 28.6296 44.0154 28.0049C43.3986 27.624 41.9366 27.3515 41.8916 26.6247C41.808 25.2645 43.9505 26.4206 44.5273 26.7467ZM47.203 38.389C45.4812 38.328 41.7755 37.0238 40.4645 35.8962C39.8153 35.3375 40.1187 34.4613 41.0626 34.6754C41.4309 34.7588 42.8942 35.7457 43.4798 36.002C48.4453 38.1749 51.4917 36.7985 54.3147 32.5249C54.6156 32.0694 54.7979 31.1099 55.5445 31.309C56.6145 31.594 55.4459 33.3052 55.1125 33.8179C54.0999 35.3723 52.513 36.9566 50.7663 37.6386C50.6302 37.8252 51.8613 38.7661 52.0785 39.0038C53.2409 40.2819 55.0825 43.9668 55.0226 45.6656C54.9926 46.5293 54.0999 46.5591 53.7853 46.0141C53.5243 45.5611 53.2884 44.0652 53.0461 43.3906C52.4818 41.8176 51.4143 40.0392 50.0784 39.0063C48.7774 38.0007 48.6076 38.4388 47.2005 38.389H47.203ZM57.682 52.4332C53.8689 54.2452 50.4205 52.7866 48.2942 49.3754C47.9995 48.9013 47.354 48.0874 47.836 47.5971C48.0819 47.4029 48.4702 47.2785 48.7337 47.5062C48.9971 47.734 49.4329 48.7009 49.7175 49.0768C51.5541 51.5073 53.7079 52.5925 56.7206 51.3505C57.3024 51.1103 58.9842 49.7861 59.3913 50.4159C59.9581 51.3629 58.3912 52.0959 57.6808 52.4332H57.682ZM67.1248 40.0628C66.9812 39.9969 65.9798 38.949 65.8225 38.7486C63.9385 36.3592 63.6188 32.8012 63.901 29.8853C64.1982 29.2693 65.0846 29.3564 65.2257 30.0147C65.3106 30.4117 65.1071 31.421 65.1196 31.9823C65.1733 34.2884 65.7326 36.5496 67.2446 38.3268C67.4556 38.5757 67.8002 38.7524 67.9525 38.9279C68.6218 39.7044 67.8764 40.4076 67.1248 40.0628Z" fill="#DB6F61"/>
</svg>
