<svg width="29" height="29" viewBox="0 0 29 29" fill="none" xmlns="http://www.w3.org/2000/svg">
<g clip-path="url(#clip0_6_35)">
<path d="M28.2751 25.458L3.39913 0.581947C2.62199 -0.195196 1.36199 -0.195196 0.584846 0.581948C-0.192297 1.35909 -0.192297 2.61909 0.584846 3.39623L25.4609 28.2722C26.238 29.0494 27.498 29.0494 28.2751 28.2722C29.0523 27.4951 29.0523 26.2351 28.2751 25.458Z" fill="#F1CA49"/>
<path d="M25.458 0.584851L0.581947 25.4609C-0.195196 26.238 -0.195196 27.498 0.581948 28.2752C1.35909 29.0523 2.61909 29.0523 3.39623 28.2752L28.2722 3.39914C29.0494 2.62199 29.0494 1.362 28.2722 0.584853C27.4951 -0.19229 26.2351 -0.192293 25.458 0.584851Z" fill="#F1CA49"/>
</g>
<defs>
<clipPath id="clip0_6_35">
<rect width="28.85" height="28.85" fill="white"/>
</clipPath>
</defs>
</svg>
