<svg width="93" height="93" viewBox="0 0 93 93" fill="none" xmlns="http://www.w3.org/2000/svg">
<rect width="93" height="93" rx="24" fill="#102542"/>
<path d="M47.7207 57.1484L46.8629 56.4828C46.1899 53.8115 43.3967 33.142 42.2223 32.9083C41.4613 32.7585 41.3381 33.4858 41.1314 34.0104C40.3704 35.9632 38.3822 47.4374 37.3881 47.8915C36.6359 46.9481 34.762 40.5211 33.438 40.8429C32.6683 41.0281 30.834 49.1918 30.073 50.479C28.2871 50.3203 23.6685 51.1182 22.4412 50.0955C21.5175 49.3285 19.5513 44.6339 19.1246 43.2806C12.8432 23.5455 34.3925 12.587 46.1899 28.9322C58.2072 12.2079 80.2799 24.1715 73.1188 44.0256C72.6394 45.3568 71.4429 48.4469 69.9606 48.5747C67.2421 48.8127 63.2525 47.9708 60.3362 48.2661C58.977 47.7989 57.1295 40.4506 55.4316 40.8429L47.7207 57.1529V57.1484Z" fill="#DB6F61"/>
<path d="M69.723 50.0955C71.3637 51.3033 47.7954 71.5453 46.1899 73C41.5712 68.3847 36.2004 64.4527 31.4498 60.0181C29.6375 58.3254 26.4925 55.4778 25.0761 53.622C24.7374 53.1812 24.2227 53.0622 24.4207 52.2996C26.1274 52.0307 29.5012 52.8506 30.8296 51.8896C31.8941 51.1182 33.3896 45.8814 33.658 44.3606C35.1183 44.9557 36.4423 52.8109 38.4877 51.4135L41.5756 38.1937L46.6342 61.1114L47.9098 60.1945L55.8671 43.4834L59.386 50.0955H69.723Z" fill="#DB6F61"/>
</svg>
