<svg width="131" height="63" viewBox="0 0 131 63" fill="none" xmlns="http://www.w3.org/2000/svg">
<g clip-path="url(#clip0_9_2)">
<path d="M0.019989 27.01V5.06C0.019989 1.97 1.45999 0 5.04999 0H18.84V5.42H5.70999V12.48H17.94V17.86H5.70999V27.01H0.019989Z" fill="#F1CA49"/>
<path d="M28.46 0V27.01H22.77V0H28.46Z" fill="#F1CA49"/>
<path d="M53.36 5.42H45.65V27.01H39.96V5.42H32.25V0H53.36V5.42Z" fill="#F1CA49"/>
<path d="M76.16 55.97C74.6 52.76 73.49 50.65 71.58 49.55C75.41 48.49 77.81 45.24 77.81 41.02C77.81 34.46 72.6 31.2 65.84 31.2H54.31V37.39H65.93C68.87 37.39 71.14 38.67 71.14 41.7C71.14 44.73 68.91 46.24 65.84 46.24H54.31V62.06H60.72L60.76 52.2H63.3C66.68 52.2 67.97 53.71 69.35 56.56L72.02 62.06H79.05L76.16 55.96V55.97Z" fill="#F1CA49"/>
<path d="M50 37.44C47.19 33.87 42.79 31.63 37.67 31.63C32.55 31.63 28.19 33.87 25.38 37.44H50.01H50Z" fill="#F2EEEB"/>
<path d="M46.53 46.43C46.55 46.67 46.56 46.91 46.56 47.16C46.56 52.46 42.64 56.55 37.66 56.55C32.68 56.55 28.76 52.46 28.76 47.16C28.76 46.91 28.78 46.67 28.79 46.43H22.11C22.1 46.67 22.08 46.91 22.08 47.16C22.08 56.02 28.8 62.69 37.66 62.69C46.52 62.69 53.28 56.01 53.28 47.16C53.28 46.91 53.26 46.67 53.25 46.43H46.53Z" fill="#F1CA49"/>
<path d="M6.5 46.39V37.4H21.51V31.2H5.75C1.65 31.2 0 33.45 0 36.98V62.09H6.5V51.62H20.49V46.39H6.5Z" fill="#F1CA49"/>
<path d="M115.18 37.61H130.27V31.7H114.42C110.28 31.7 108.68 33.91 108.68 37.39V37.62H115.18V37.61Z" fill="#F1CA49"/>
<path d="M115.18 56.16H108.68V56.43C108.68 59.91 110.28 62.07 114.42 62.07H130.53V56.16H115.17H115.18Z" fill="#F1CA49"/>
<path d="M78.78 46.86C78.78 37.92 85.59 30.81 94.31 30.81C99.52 30.81 104.5 33.65 106.73 38.47L102.12 43.72C100.65 41.06 97.65 37.19 94.05 37.19C89.06 37.19 85.46 41.27 85.46 46.87C85.46 52.47 89.02 56.55 94.05 56.55C97.65 56.55 100.06 54.85 101.44 52.19L106.74 55.26C104.51 60.08 99.53 62.92 94.32 62.92C85.6 62.92 78.79 55.81 78.79 46.87L78.78 46.86Z" fill="#F2EEEB"/>
<path d="M129.34 49.85V43.94H115.19H112.19C110.26 43.94 108.7 45.5 108.7 47.43V48.21C108.7 49.11 109.43 49.85 110.34 49.85H115.58H129.36H129.34Z" fill="#F2EEEB"/>
<path d="M111.7 43.96C111.7 43.96 105.26 43.78 101.43 52.17L106.73 55.24C106.73 55.24 108.19 50.28 112.37 49.83L111.7 43.95V43.96Z" fill="#F2EEEB"/>
<path d="M112.26 49.86C112.26 49.86 112.32 49.84 112.49 49.85L112.26 49.86Z" fill="#19A0C9"/>
<path d="M111.39 44.12C111.39 44.12 111.55 44.09 111.69 44.08C111.77 44.08 111.89 44.07 112.02 44.08" stroke="#19A0C9" stroke-width="0.25" stroke-miterlimit="10" stroke-linecap="round"/>
</g>
<defs>
<clipPath id="clip0_9_2">
<rect width="130.54" height="62.91" fill="white"/>
</clipPath>
</defs>
</svg>
