<svg width="122" height="27" viewBox="0 0 122 27" fill="none" xmlns="http://www.w3.org/2000/svg">
<g clip-path="url(#clip0_5_2)">
<path d="M0 26.77V5.01C0 1.95 1.43 0 4.98 0H18.64V5.37H5.64V12.37H17.76V17.7H5.64V26.77H0Z" fill="#F1CA49"/>
<path d="M28.18 0V26.77H22.54V0H28.18Z" fill="#F1CA49"/>
<path d="M52.86 5.37H45.22V26.77H39.58V5.37H31.94V0H52.86V5.37Z" fill="#F1CA49"/>
<path d="M95.57 13.39C95.57 8.98999 98.92 5.48999 103.22 5.48999C105.78 5.48999 108.24 6.88999 109.33 9.25999L107.06 11.84C106.34 10.53 104.86 8.61999 103.09 8.61999C100.64 8.61999 98.86 10.63 98.86 13.39C98.86 16.15 100.61 18.15 103.09 18.15C104.86 18.15 106.05 17.31 106.73 16L109.34 17.51C108.24 19.88 105.79 21.28 103.23 21.28C98.93 21.28 95.58 17.78 95.58 13.38L95.57 13.39Z" fill="#F2EEEB"/>
<path d="M94.29 17.88C93.52 16.3 92.98 15.26 92.03 14.72C93.91 14.2 95.1 12.6 95.1 10.52C95.1 7.29 92.54 5.69 89.2 5.69H83.52V8.74H89.24C90.69 8.74 91.8 9.37 91.8 10.86C91.8 12.35 90.7 13.1 89.19 13.1H83.51V20.89H86.67L86.69 16.03H87.94C89.61 16.03 90.24 16.78 90.92 18.18L92.23 20.89H95.69L94.27 17.89L94.29 17.88Z" fill="#F1CA49"/>
<path d="M81.32 8.72999C79.94 6.96999 77.77 5.87 75.25 5.87C72.73 5.87 70.58 6.96999 69.2 8.72999H81.33H81.32Z" fill="#F2EEEB"/>
<path d="M79.61 13.16C79.61 13.28 79.63 13.4 79.63 13.52C79.63 16.13 77.7 18.14 75.25 18.14C72.8 18.14 70.87 16.12 70.87 13.52C70.87 13.4 70.87 13.28 70.89 13.16H67.6C67.6 13.28 67.58 13.4 67.58 13.52C67.58 17.88 70.89 21.17 75.25 21.17C79.61 21.17 82.94 17.88 82.94 13.52C82.94 13.4 82.93 13.28 82.92 13.16H79.61Z" fill="#F1CA49"/>
<path d="M59.62 13.16V8.72999H67.01V5.67999H59.25C57.23 5.67999 56.42 6.78999 56.42 8.52999V20.89H59.62V15.74H66.51V13.16H59.62Z" fill="#F1CA49"/>
<path d="M113.49 8.83001H120.92V5.92001H113.12C111.08 5.92001 110.29 7.01001 110.29 8.72001V8.83001H113.49Z" fill="#F2EEEB"/>
<path d="M120.46 14.86V11.95H113.49H112.01C111.06 11.95 110.29 12.72 110.29 13.67V14.06C110.29 14.5 110.65 14.87 111.1 14.87H113.68H120.46V14.86Z" fill="#F2EEEB"/>
<path d="M113.49 17.97H110.29V18.11C110.29 19.82 111.08 20.89 113.12 20.89H121.05V17.98H113.49V17.97Z" fill="#F2EEEB"/>
<path d="M111.78 11.96C111.78 11.96 108.61 11.87 106.72 16L109.33 17.51C109.33 17.51 110.05 15.07 112.11 14.85L111.78 11.96Z" fill="#F2EEEB"/>
</g>
<defs>
<clipPath id="clip0_5_2">
<rect width="121.05" height="26.77" fill="white"/>
</clipPath>
</defs>
</svg>
