<svg width="48" height="26" viewBox="0 0 48 26" fill="none" xmlns="http://www.w3.org/2000/svg">
<g clip-path="url(#clip0_6_30)">
<path d="M45.5609 0H2.43906C1.092 0 0 1.25326 0 2.79923C0 4.34521 1.092 5.59847 2.43906 5.59847H45.5609C46.908 5.59847 48 4.34521 48 2.79923C48 1.25326 46.908 0 45.5609 0Z" fill="#F1CA49"/>
<path d="M45.5523 10.2008H12.3515C11.0045 10.2008 9.91248 11.454 9.91248 13C9.91248 14.546 11.0045 15.7992 12.3515 15.7992H45.5523C46.8993 15.7992 47.9913 14.546 47.9913 13C47.9913 11.454 46.8993 10.2008 45.5523 10.2008Z" fill="#F1CA49"/>
<path d="M45.0488 20.4115H21.37C20.0229 20.4115 18.9309 21.6648 18.9309 23.2107C18.9309 24.7567 20.0229 26.01 21.37 26.01H45.0488C46.3959 26.01 47.4879 24.7567 47.4879 23.2107C47.4879 21.6648 46.3959 20.4115 45.0488 20.4115Z" fill="#F1CA49"/>
</g>
<defs>
<clipPath id="clip0_6_30">
<rect width="48" height="26" fill="white"/>
</clipPath>
</defs>
</svg>
