<svg width="93" height="93" viewBox="0 0 93 93" fill="none" xmlns="http://www.w3.org/2000/svg">
<rect width="93" height="93" rx="24" fill="#102542"/>
<path d="M34.7872 59.7742C34.7069 60.096 33.8751 60.8126 33.4957 60.882C32.6529 61.0356 28.4027 61.021 27.5234 60.882C26.4472 60.7102 26.1189 59.7157 26.0532 58.7542C25.5205 51.0874 26.4727 42.8064 26.0532 35.0738C26.086 33.9477 26.7135 33.2055 27.8481 33.0995C29.0557 32.9898 32.3647 32.9387 33.4921 33.1178C33.9116 33.1836 34.7836 33.8563 34.7836 34.2219V43.1391L35.0389 43.395H57.1148L57.3701 43.1391V34.2219C57.3701 33.8563 58.2457 33.1836 58.6616 33.1178C59.6284 32.9642 63.6671 32.9642 64.6302 33.1178C65.7065 33.2896 66.0348 34.2841 66.1005 35.2456C66.6331 42.9124 65.6809 51.1934 66.1005 58.926C66.0676 60.0521 65.4401 60.7943 64.3055 60.9003C63.1709 61.0063 59.6576 61.0648 58.658 60.882C58.3041 60.8162 57.3665 60.0155 57.3665 59.7742V50.8571L57.1111 50.6011H35.0353L34.7799 50.8571V59.7742H34.7872Z" fill="#DB6F61"/>
<path d="M68.7929 37.2602C69.3839 37.1249 71.8502 37.1505 72.4412 37.304C73.2694 37.5197 73.6634 38.24 73.7911 39.0407C73.4116 44.0312 74.3529 49.9175 73.8057 54.802C73.6962 55.7928 73.2146 56.6008 72.1676 56.7617C71.5765 56.8531 69.1796 56.8567 68.6616 56.6959C68.1982 56.5533 67.5488 55.8074 67.4832 55.3065L67.4649 38.6714C67.4759 38.1522 68.315 37.3662 68.7929 37.2602Z" fill="#DB6F61"/>
<path d="M19.8511 37.2638C20.4276 37.1468 22.8099 37.1358 23.3681 37.2638C23.9263 37.3918 24.5903 38.1413 24.6778 38.697V55.3138C24.499 56.0962 23.846 56.652 23.047 56.7653C21.4418 56.992 18.5085 57.1382 18.3699 54.9665C18.7493 49.9723 17.8117 44.0897 18.3553 39.2052C18.4575 38.2948 18.888 37.4685 19.8511 37.2711V37.2638Z" fill="#DB6F61"/>
<path d="M15.5607 43.7899C17.6658 43.6729 17.5819 48.8901 16.4874 49.837C13.784 52.1806 13.0033 43.9288 15.5607 43.7899Z" fill="#DB6F61"/>
<path d="M76.4835 43.7899C78.2785 43.6912 78.2019 46.9304 78.0815 48.1114C77.7969 50.9448 75.2395 50.8607 74.995 48.1187C74.8892 46.9231 74.7616 43.8849 76.4835 43.7899Z" fill="#DB6F61"/>
</svg>
